<svg version="1.1" xmlns="http://www.w3.org/2000/svg" xmlns:xlink="http://www.w3.org/1999/xlink" width="512.000000pt" height="512.000000pt" viewBox="0,0,256,256"><g fill="#f8cd2b" fill-rule="nonzero" stroke="none" stroke-width="1" stroke-linecap="butt" stroke-linejoin="miter" stroke-miterlimit="10" stroke-dasharray="" stroke-dashoffset="0" font-family="none" font-weight="none" font-size="none" text-anchor="none" style="mix-blend-mode: normal"><g transform="translate(0.00595,0.0968) scale(0.5,0.5)"><g transform="translate(0,512) scale(0.1,-0.1)"><path d="M2924,4762c-149,-53 -253,-195 -262,-357c-11,-215 133,-391 344,-420c111,-15 224,26 312,114c158,157 158,400 1,566c-71,75 -149,109 -259,112c-63,3 -98,-1 -136,-15z"></path><path d="M2335,4142c-52,-26 -117,-89 -490,-472c-236,-244 -442,-461 -458,-483c-35,-52 -49,-104 -49,-189c0,-100 25,-161 92,-228c46,-45 130,-97 483,-294l427,-239v-453c0,-285 4,-472 11,-503c22,-106 102,-171 209,-171c107,0 187,65 209,170c7,30 11,276 11,659l1,611l-28,51c-15,28 -44,65 -65,83c-20,17 -155,94 -299,170l-263,140l264,258c208,203 266,256 276,246c6,-7 67,-103 135,-213c68,-110 138,-214 157,-232c22,-20 53,-36 84,-42c64,-14 718,-14 778,0c118,27 164,167 88,264c-41,53 -59,55 -420,55l-333,1l-212,352c-117,194 -228,369 -248,389c-54,55 -128,86 -221,93c-74,6 -83,4 -139,-23z"></path><path d="M885,2463c-288,-46 -537,-210 -710,-469c-202,-300 -231,-731 -70,-1054c56,-115 104,-180 209,-286c147,-146 285,-228 466,-276c72,-19 111,-22 255,-22c186,0 241,9 383,64c224,86 458,313 563,546c17,38 43,112 57,164c23,85 26,113 26,275c0,164 -3,189 -27,279c-97,362 -394,665 -742,757c-60,16 -117,22 -230,24c-82,2 -163,1 -180,-2zM1240,2255c153,-36 323,-147 436,-283c116,-140 174,-279 194,-469c39,-366 -154,-724 -475,-878c-127,-61 -213,-79 -360,-78c-243,2 -428,83 -601,266c-160,167 -234,357 -234,597c0,241 73,429 233,597c143,150 306,237 496,264c75,10 231,2 311,-16z"></path><path d="M3935,2453c-404,-64 -743,-375 -853,-782c-23,-87 -26,-114 -26,-276c0,-164 3,-189 27,-280c65,-240 220,-458 431,-604c92,-63 173,-102 291,-137c84,-26 103,-28 275,-28c203,-1 259,9 413,75c150,63 334,216 437,361c237,335 252,805 36,1170c-111,189 -316,366 -509,440c-120,47 -188,59 -342,63c-82,2 -163,1 -180,-2zM4172,2260c298,-34 562,-235 684,-519c51,-119 67,-220 61,-380c-9,-249 -86,-422 -263,-592c-116,-110 -241,-181 -381,-216c-92,-22 -294,-22 -386,0c-234,58 -448,235 -556,460c-126,262 -112,590 37,841c64,108 194,239 297,300c89,52 206,92 305,105c92,12 105,12 202,1z"></path></g></g></g></svg>